<?xml version="1.0" encoding="utf-8"?>
<!DOCTYPE svg PUBLIC "-//W3C//DTD SVG 1.1//EN" "http://www.w3.org/Graphics/SVG/1.1/DTD/svg11.dtd">
<svg width="0" height="0" style='display: none;' xmlns="http://www.w3.org/2000/svg">

	<symbol id="v-logo" width="90" height="105" viewBox="0 0 87 105" xmlns="http://www.w3.org/2000/svg"><g fill="none" fill-rule="evenodd"><path fill="#00A9C0" d="M-.066.763l27.92 7.78L55.223 74.89l-12.147 29.783z"/><path fill="#004A97" d="M86.13.763l-27.92 7.78L30.841 74.89l12.147 29.783z"/><path fill="#006AB8" d="M55.476 74.674L43.161 45.13 30.84 74.674l12.276 29.783z"/></g></symbol>

	<symbol id="arrow-right" viewBox="0 0 24 24">
	<path fill="currentColor" d="M14.561 20.561l7.5-7.5c0.586-0.586 0.586-1.536 0-2.121l-7.5-7.5c-0.586-0.586-1.536-0.586-2.121 0s-0.586 1.536 0 2.121l4.939 4.939h-14.379c-0.828 0-1.5 0.672-1.5 1.5s0.672 1.5 1.5 1.5h14.379l-4.939 4.939c-0.293 0.293-0.439 0.677-0.439 1.061s0.146 0.768 0.439 1.061c0.586 0.586 1.536 0.586 2.121 0z"></path>
	</symbol>

	<symbol id="cross-ico" viewBox="0 0 24 24" >
	    <path fill="currentColor" d="M19 6.41L17.59 5 12 10.59 6.41 5 5 6.41 10.59 12 5 17.59 6.41 19 12 13.41 17.59 19 19 17.59 13.41 12z"/>
	    <path d="M0 0h24v24H0z" fill="none"/>
	</symbol>

	<symbol id="search-ico" class="search-ico" height="24" viewBox="0 0 24 24" width="24" xmlns="http://www.w3.org/2000/svg">
	    <path fill="currentColor" d="M15.5 14h-.79l-.28-.27C15.41 12.59 16 11.11 16 9.5 16 5.91 13.09 3 9.5 3S3 5.91 3 9.5 5.91 16 9.5 16c1.61 0 3.09-.59 4.23-1.57l.27.28v.79l5 4.99L20.49 19l-4.99-5zm-6 0C7.01 14 5 11.99 5 9.5S7.01 5 9.5 5 14 7.01 14 9.5 11.99 14 9.5 14z"/>
	    <path d="M0 0h24v24H0z" fill="none"/>
	</symbol>
	
	<symbol id="checked-ico" class="checked-ico" width="26" height="26" viewBox="0 0 26 26" xmlns="http://www.w3.org/2000/svg"><title>5D2D8E66-820A-4616-9B60-1F4FF8239204</title><g fill="none" fill-rule="evenodd"><ellipse fill="#27AE60" cx="13" cy="13" rx="13" ry="13"/><path d="M11.05 15.73L8.32 13l-.91.91 3.64 3.64 7.8-7.8-.91-.91z" fill="#FFF"/></g></symbol>

	<symbol id="add-ico" class="add-ico" width="36" height="36" viewBox="0 0 36 36" xmlns="http://www.w3.org/2000/svg"><title>BF581402-1A4E-4DD5-94AD-7B9E1EBE21C4</title><g fill="none" fill-rule="evenodd"><ellipse fill="#E74C3C" cx="18" cy="18" rx="18" ry="18"/><path d="M22.5 18.643h-3.857V22.5h-1.286v-3.857H13.5v-1.286h3.857V13.5h1.286v3.857H22.5z" fill="#FFF"/></g></symbol>

	<symbol id="add-file-ico" class="add-file-ico" height="24" viewBox="0 0 24 24" width="24" xmlns="http://www.w3.org/2000/svg">
	    <path fill="currentColor" d="M19 13h-6v6h-2v-6H5v-2h6V5h2v6h6v2z"/>
	    <path d="M0 0h24v24H0z" fill="none"/>
	</symbol>

	<symbol id="mail-ico" class="mail-ico" height="24" viewBox="2 0 24 24" width="24" xmlns="http://www.w3.org/2000/svg">
		    <path fill="currentColor" d="M20 4H4c-1.1 0-1.99.9-1.99 2L2 18c0 1.1.9 2 2 2h16c1.1 0 2-.9 2-2V6c0-1.1-.9-2-2-2zm0 4l-8 5-8-5V6l8 5 8-5v2z"/>
		    <path d="M0 0h24v24H0z" fill="none"/>
	</symbol>
		
	<symbol id="more-vert-ico" class="more-vert-ico" height="24" viewBox="-1 0 24 24" width="24" xmlns="http://www.w3.org/2000/svg">
	    <path d="M0 0h24v24H0z" fill="none"/>
	    <path fill="currentColor" d="M12 8c1.1 0 2-.9 2-2s-.9-2-2-2-2 .9-2 2 .9 2 2 2zm0 2c-1.1 0-2 .9-2 2s.9 2 2 2 2-.9 2-2-.9-2-2-2zm0 6c-1.1 0-2 .9-2 2s.9 2 2 2 2-.9 2-2-.9-2-2-2z"/>
	</symbol>
		
	<symbol id="notification-ico" class="notification-ico" height="24" viewBox="2 3 20 20" width="24" xmlns="http://www.w3.org/2000/svg">
	    <path fill="currentColor" d="M12 22c1.1 0 2-.9 2-2h-4c0 1.1.89 2 2 2zm6-6v-5c0-3.07-1.64-5.64-4.5-6.32V4c0-.83-.67-1.5-1.5-1.5s-1.5.67-1.5 1.5v.68C7.63 5.36 6 7.92 6 11v5l-2 2v1h16v-1l-2-2z"/>
	</symbol>

	<symbol id="record-voice-ico" class="record-voice-ico" height="24" viewBox="0 0 24 24" width="24" xmlns="http://www.w3.org/2000/svg">
	    <circle fill="currentColor" cx="9" cy="9" r="4"/>
	    <path fill="currentColor" d="M9 15c-2.67 0-8 1.34-8 4v2h16v-2c0-2.66-5.33-4-8-4zm7.76-9.64l-1.68 1.69c.84 1.18.84 2.71 0 3.89l1.68 1.69c2.02-2.02 2.02-5.07 0-7.27zM20.07 2l-1.63 1.63c2.77 3.02 2.77 7.56 0 10.74L20.07 16c3.9-3.89 3.91-9.95 0-14z"/>
	    <path d="M0 0h24v24H0z" fill="none"/>
	</symbol>

	<symbol id="person-ico" class="person-ico" height="24" viewBox="0 -1 24 24" width="24" xmlns="http://www.w3.org/2000/svg">
	    <path fill="currentColor" d="M12 12c2.21 0 4-1.79 4-4s-1.79-4-4-4-4 1.79-4 4 1.79 4 4 4zm0 2c-2.67 0-8 1.34-8 4v2h16v-2c0-2.66-5.33-4-8-4z"/>
	    <path d="M0 0h24v24H0z" fill="none"/>
	</symbol>

	<symbol id="school-hat-ico" class="school-hat-ico" height="24" viewBox="0 0 24 24" width="24" xmlns="http://www.w3.org/2000/svg">
	    <path d="M0 0h24v24H0z" fill="none"/>
	    <path fill="currentColor" d="M5 13.18v4L12 21l7-3.82v-4L12 17l-7-3.82zM12 3L1 9l11 6 9-4.91V17h2V9L12 3z"/>
	</symbol>

	<symbol id="camera-ico" class="camera-ico" viewBox="1 -1 24 24" xmlns="http://www.w3.org/2000/svg">
	    <circle fill="currentColor" cx="12" cy="12" r="3.2"/>
	    <path fill="currentColor" d="M9 2L7.17 4H4c-1.1 0-2 .9-2 2v12c0 1.1.9 2 2 2h16c1.1 0 2-.9 2-2V6c0-1.1-.9-2-2-2h-3.17L15 2H9zm3 15c-2.76 0-5-2.24-5-5s2.24-5 5-5 5 2.24 5 5-2.24 5-5 5z"/>
	    <path d="M0 0h24v24H0z" fill="none"/>
	</symbol>

	<symbol id="call-ico" class="call-ico" height="24" viewBox="0 0 24 24" width="24" xmlns="http://www.w3.org/2000/svg">
	    <path d="M0 0h24v24H0z" fill="none"/>
	    <path fill="currentColor" d="M6.62 10.79c1.44 2.83 3.76 5.14 6.59 6.59l2.2-2.2c.27-.27.67-.36 1.02-.24 1.12.37 2.33.57 3.57.57.55 0 1 .45 1 1V20c0 .55-.45 1-1 1-9.39 0-17-7.61-17-17 0-.55.45-1 1-1h3.5c.55 0 1 .45 1 1 0 1.25.2 2.45.57 3.57.11.35.03.74-.25 1.02l-2.2 2.2z"/>
	</symbol>

	<symbol id="group-ico" height="24" viewBox="0 0 24 24" width="24" xmlns="http://www.w3.org/2000/svg">
	    <path d="M0 0h24v24H0z" fill="none"/>
	    <path fill="currentColor" d="M16 11c1.66 0 2.99-1.34 2.99-3S17.66 5 16 5c-1.66 0-3 1.34-3 3s1.34 3 3 3zm-8 0c1.66 0 2.99-1.34 2.99-3S9.66 5 8 5C6.34 5 5 6.34 5 8s1.34 3 3 3zm0 2c-2.33 0-7 1.17-7 3.5V19h14v-2.5c0-2.33-4.67-3.5-7-3.5zm8 0c-.29 0-.62.02-.97.05 1.16.84 1.97 1.97 1.97 3.45V19h6v-2.5c0-2.33-4.67-3.5-7-3.5z"/>
	</symbol>
	<symbol id="bars-ico" height="24" viewBox="0 0 24 24" width="24" xmlns="http://www.w3.org/2000/svg">
	    <path d="M0 0h24v24H0z" fill="none"/>
	    <path fill="currentColor" d="M3 18h18v-2H3v2zm0-5h18v-2H3v2zm0-7v2h18V6H3z"/>
	</symbol>
</svg>