<?xml version="1.0" encoding="utf-8"?>
<!DOCTYPE svg PUBLIC "-//W3C//DTD SVG 1.1//EN" "http://www.w3.org/Graphics/SVG/1.1/DTD/svg11.dtd">
<svg width="0" height="0" style='display: none;' xmlns="http://www.w3.org/2000/svg">

	<symbol id="v-logo" width="90" height="105" viewBox="0 0 87 105" xmlns="http://www.w3.org/2000/svg"><g fill="none" fill-rule="evenodd"><path fill="#00A9C0" d="M-.066.763l27.92 7.78L55.223 74.89l-12.147 29.783z"/><path fill="#004A97" d="M86.13.763l-27.92 7.78L30.841 74.89l12.147 29.783z"/><path fill="#006AB8" d="M55.476 74.674L43.161 45.13 30.84 74.674l12.276 29.783z"/></g></symbol>

	<symbol id="arrow-right" viewBox="0 0 24 24">
	<path fill="currentColor" d="M14.561 20.561l7.5-7.5c0.586-0.586 0.586-1.536 0-2.121l-7.5-7.5c-0.586-0.586-1.536-0.586-2.121 0s-0.586 1.536 0 2.121l4.939 4.939h-14.379c-0.828 0-1.5 0.672-1.5 1.5s0.672 1.5 1.5 1.5h14.379l-4.939 4.939c-0.293 0.293-0.439 0.677-0.439 1.061s0.146 0.768 0.439 1.061c0.586 0.586 1.536 0.586 2.121 0z"></path>
	</symbol>

	<symbol class="cross-ico" id="cross" viewBox="0 0 24 24" width="24">
    <path fill="currentColor" d="M19 6.41L17.59 5 12 10.59 6.41 5 5 6.41 10.59 12 5 17.59 6.41 19 12 13.41 17.59 19 19 17.59 13.41 12z"/>
    <path d="M0 0h24v24H0z" fill="none"/>
</symbol>


</svg>